<mxfile host="app.diagrams.net" modified="2023-11-15T20:09:03.095Z" agent="Mozilla/5.0 (Windows NT 10.0; Win64; x64) AppleWebKit/537.36 (KHTML, like Gecko) Chrome/119.0.0.0 Safari/537.36" etag="ZOtFmZ8OAIEq-1_77icv" version="22.1.2" type="device">
  <diagram id="C5RBs43oDa-KdzZeNtuy" name="Page-1">
    <mxGraphModel dx="4175" dy="1536" grid="1" gridSize="10" guides="1" tooltips="1" connect="1" arrows="1" fold="1" page="1" pageScale="1" pageWidth="827" pageHeight="1169" math="0" shadow="0">
      <root>
        <mxCell id="WIyWlLk6GJQsqaUBKTNV-0" />
        <mxCell id="WIyWlLk6GJQsqaUBKTNV-1" parent="WIyWlLk6GJQsqaUBKTNV-0" />
        <mxCell id="WIyWlLk6GJQsqaUBKTNV-2" value="" style="rounded=0;html=1;jettySize=auto;orthogonalLoop=1;fontSize=11;endArrow=block;endFill=0;endSize=8;strokeWidth=1;shadow=0;labelBackgroundColor=none;edgeStyle=orthogonalEdgeStyle;" parent="WIyWlLk6GJQsqaUBKTNV-1" source="WIyWlLk6GJQsqaUBKTNV-3" target="WIyWlLk6GJQsqaUBKTNV-6" edge="1">
          <mxGeometry relative="1" as="geometry" />
        </mxCell>
        <mxCell id="WIyWlLk6GJQsqaUBKTNV-3" value="Generate new building" style="rounded=1;whiteSpace=wrap;html=1;fontSize=12;glass=0;strokeWidth=1;shadow=0;" parent="WIyWlLk6GJQsqaUBKTNV-1" vertex="1">
          <mxGeometry x="185" width="120" height="40" as="geometry" />
        </mxCell>
        <mxCell id="2-hhIEHxdiHJnQ0-l-Cq-2" style="edgeStyle=orthogonalEdgeStyle;rounded=0;orthogonalLoop=1;jettySize=auto;html=1;exitX=1;exitY=0.5;exitDx=0;exitDy=0;entryX=1;entryY=0.5;entryDx=0;entryDy=0;" parent="WIyWlLk6GJQsqaUBKTNV-1" source="WIyWlLk6GJQsqaUBKTNV-6" target="WIyWlLk6GJQsqaUBKTNV-3" edge="1">
          <mxGeometry relative="1" as="geometry" />
        </mxCell>
        <mxCell id="2-hhIEHxdiHJnQ0-l-Cq-3" value="No" style="edgeLabel;html=1;align=center;verticalAlign=middle;resizable=0;points=[];" parent="2-hhIEHxdiHJnQ0-l-Cq-2" vertex="1" connectable="0">
          <mxGeometry x="-0.1122" relative="1" as="geometry">
            <mxPoint as="offset" />
          </mxGeometry>
        </mxCell>
        <mxCell id="2-hhIEHxdiHJnQ0-l-Cq-38" value="yes" style="edgeStyle=orthogonalEdgeStyle;rounded=0;orthogonalLoop=1;jettySize=auto;html=1;" parent="WIyWlLk6GJQsqaUBKTNV-1" source="WIyWlLk6GJQsqaUBKTNV-6" target="2-hhIEHxdiHJnQ0-l-Cq-31" edge="1">
          <mxGeometry relative="1" as="geometry" />
        </mxCell>
        <mxCell id="WIyWlLk6GJQsqaUBKTNV-6" value="Building: connected to existing infrastructure? &amp;amp;&amp;amp; has 400 student, 200 elderly, 200 starter unit? &amp;amp;&amp;amp;&lt;br&gt;all dwellings have windows with daylight? &amp;amp;&amp;amp; units larger than 40m^2 have &amp;gt;=5m^2 outdoor space &amp;amp;&amp;amp;&lt;br&gt;&amp;nbsp;1.33 bike parking spot per resident &amp;amp;&amp;amp; social control check passes" style="rhombus;whiteSpace=wrap;html=1;shadow=0;fontFamily=Helvetica;fontSize=12;align=center;strokeWidth=1;spacing=6;spacingTop=-4;" parent="WIyWlLk6GJQsqaUBKTNV-1" vertex="1">
          <mxGeometry x="-70" y="60" width="630" height="150" as="geometry" />
        </mxCell>
        <mxCell id="2-hhIEHxdiHJnQ0-l-Cq-11" style="edgeStyle=orthogonalEdgeStyle;rounded=0;orthogonalLoop=1;jettySize=auto;html=1;" parent="WIyWlLk6GJQsqaUBKTNV-1" source="2-hhIEHxdiHJnQ0-l-Cq-4" edge="1">
          <mxGeometry relative="1" as="geometry">
            <mxPoint x="580" y="60" as="targetPoint" />
          </mxGeometry>
        </mxCell>
        <mxCell id="2-hhIEHxdiHJnQ0-l-Cq-12" value="No" style="edgeLabel;html=1;align=center;verticalAlign=middle;resizable=0;points=[];" parent="2-hhIEHxdiHJnQ0-l-Cq-11" vertex="1" connectable="0">
          <mxGeometry x="-0.4197" y="1" relative="1" as="geometry">
            <mxPoint as="offset" />
          </mxGeometry>
        </mxCell>
        <mxCell id="2-hhIEHxdiHJnQ0-l-Cq-14" style="edgeStyle=orthogonalEdgeStyle;rounded=0;orthogonalLoop=1;jettySize=auto;html=1;entryX=0.5;entryY=0;entryDx=0;entryDy=0;" parent="WIyWlLk6GJQsqaUBKTNV-1" source="2-hhIEHxdiHJnQ0-l-Cq-4" target="2-hhIEHxdiHJnQ0-l-Cq-25" edge="1">
          <mxGeometry relative="1" as="geometry">
            <mxPoint x="244.92000000000002" y="880" as="targetPoint" />
          </mxGeometry>
        </mxCell>
        <mxCell id="2-hhIEHxdiHJnQ0-l-Cq-16" value="Yes" style="edgeLabel;html=1;align=center;verticalAlign=middle;resizable=0;points=[];" parent="2-hhIEHxdiHJnQ0-l-Cq-14" vertex="1" connectable="0">
          <mxGeometry x="0.2784" y="2" relative="1" as="geometry">
            <mxPoint as="offset" />
          </mxGeometry>
        </mxCell>
        <mxCell id="2-hhIEHxdiHJnQ0-l-Cq-4" value="0.8 car parking spot per dwelling?" style="rhombus;whiteSpace=wrap;html=1;" parent="WIyWlLk6GJQsqaUBKTNV-1" vertex="1">
          <mxGeometry x="111.17" y="580" width="267.5" height="160" as="geometry" />
        </mxCell>
        <mxCell id="2-hhIEHxdiHJnQ0-l-Cq-17" style="edgeStyle=orthogonalEdgeStyle;rounded=0;orthogonalLoop=1;jettySize=auto;html=1;entryX=0;entryY=0.5;entryDx=0;entryDy=0;" parent="WIyWlLk6GJQsqaUBKTNV-1" source="2-hhIEHxdiHJnQ0-l-Cq-13" target="2-hhIEHxdiHJnQ0-l-Cq-19" edge="1">
          <mxGeometry relative="1" as="geometry">
            <mxPoint x="-0.0799999999999983" y="740" as="targetPoint" />
            <Array as="points">
              <mxPoint x="89.92" y="870" />
              <mxPoint x="89.92" y="660" />
              <mxPoint x="90.92" y="500" />
            </Array>
          </mxGeometry>
        </mxCell>
        <mxCell id="2-hhIEHxdiHJnQ0-l-Cq-18" value="No" style="edgeLabel;html=1;align=center;verticalAlign=middle;resizable=0;points=[];" parent="2-hhIEHxdiHJnQ0-l-Cq-17" vertex="1" connectable="0">
          <mxGeometry x="-0.1463" y="-4" relative="1" as="geometry">
            <mxPoint x="1" as="offset" />
          </mxGeometry>
        </mxCell>
        <mxCell id="3XD62awOse0tcyEUN-YT-0" style="edgeStyle=orthogonalEdgeStyle;rounded=0;orthogonalLoop=1;jettySize=auto;html=1;entryX=0;entryY=0.5;entryDx=0;entryDy=0;" edge="1" parent="WIyWlLk6GJQsqaUBKTNV-1" source="2-hhIEHxdiHJnQ0-l-Cq-13" target="2-hhIEHxdiHJnQ0-l-Cq-29">
          <mxGeometry relative="1" as="geometry" />
        </mxCell>
        <mxCell id="3XD62awOse0tcyEUN-YT-2" value="yes" style="edgeLabel;html=1;align=center;verticalAlign=middle;resizable=0;points=[];" vertex="1" connectable="0" parent="3XD62awOse0tcyEUN-YT-0">
          <mxGeometry x="0.0886" y="3" relative="1" as="geometry">
            <mxPoint as="offset" />
          </mxGeometry>
        </mxCell>
        <mxCell id="2-hhIEHxdiHJnQ0-l-Cq-13" value="Enough greenery?" style="rhombus;whiteSpace=wrap;html=1;" parent="WIyWlLk6GJQsqaUBKTNV-1" vertex="1">
          <mxGeometry x="111.17" y="880" width="267.5" height="160" as="geometry" />
        </mxCell>
        <mxCell id="2-hhIEHxdiHJnQ0-l-Cq-20" style="edgeStyle=orthogonalEdgeStyle;rounded=0;orthogonalLoop=1;jettySize=auto;html=1;" parent="WIyWlLk6GJQsqaUBKTNV-1" source="2-hhIEHxdiHJnQ0-l-Cq-19" target="2-hhIEHxdiHJnQ0-l-Cq-4" edge="1">
          <mxGeometry relative="1" as="geometry" />
        </mxCell>
        <mxCell id="2-hhIEHxdiHJnQ0-l-Cq-19" value="(re)generate car parking spots" style="rounded=1;whiteSpace=wrap;html=1;" parent="WIyWlLk6GJQsqaUBKTNV-1" vertex="1">
          <mxGeometry x="184.92000000000002" y="470" width="120" height="60" as="geometry" />
        </mxCell>
        <mxCell id="2-hhIEHxdiHJnQ0-l-Cq-27" style="edgeStyle=orthogonalEdgeStyle;rounded=0;orthogonalLoop=1;jettySize=auto;html=1;entryX=1;entryY=0.5;entryDx=0;entryDy=0;exitX=0.5;exitY=0;exitDx=0;exitDy=0;" parent="WIyWlLk6GJQsqaUBKTNV-1" source="2-hhIEHxdiHJnQ0-l-Cq-21" target="2-hhIEHxdiHJnQ0-l-Cq-25" edge="1">
          <mxGeometry relative="1" as="geometry">
            <Array as="points">
              <mxPoint x="744" y="805" />
            </Array>
            <mxPoint x="460" y="1100" as="sourcePoint" />
          </mxGeometry>
        </mxCell>
        <mxCell id="2-hhIEHxdiHJnQ0-l-Cq-28" value="No" style="edgeLabel;html=1;align=center;verticalAlign=middle;resizable=0;points=[];" parent="2-hhIEHxdiHJnQ0-l-Cq-27" vertex="1" connectable="0">
          <mxGeometry x="0.0998" y="-5" relative="1" as="geometry">
            <mxPoint as="offset" />
          </mxGeometry>
        </mxCell>
        <mxCell id="3XD62awOse0tcyEUN-YT-3" style="edgeStyle=orthogonalEdgeStyle;rounded=0;orthogonalLoop=1;jettySize=auto;html=1;" edge="1" parent="WIyWlLk6GJQsqaUBKTNV-1" source="2-hhIEHxdiHJnQ0-l-Cq-21" target="2-hhIEHxdiHJnQ0-l-Cq-41">
          <mxGeometry relative="1" as="geometry">
            <mxPoint x="880" y="650" as="targetPoint" />
            <Array as="points">
              <mxPoint x="880" y="960" />
              <mxPoint x="880" y="660" />
            </Array>
          </mxGeometry>
        </mxCell>
        <mxCell id="3XD62awOse0tcyEUN-YT-4" value="Yes" style="edgeLabel;html=1;align=center;verticalAlign=middle;resizable=0;points=[];" vertex="1" connectable="0" parent="3XD62awOse0tcyEUN-YT-3">
          <mxGeometry x="-0.1783" y="-4" relative="1" as="geometry">
            <mxPoint as="offset" />
          </mxGeometry>
        </mxCell>
        <mxCell id="2-hhIEHxdiHJnQ0-l-Cq-21" value="rain harvesting works?" style="rhombus;whiteSpace=wrap;html=1;" parent="WIyWlLk6GJQsqaUBKTNV-1" vertex="1">
          <mxGeometry x="610" y="879.9999999999999" width="267.5" height="160" as="geometry" />
        </mxCell>
        <mxCell id="2-hhIEHxdiHJnQ0-l-Cq-26" style="edgeStyle=orthogonalEdgeStyle;rounded=0;orthogonalLoop=1;jettySize=auto;html=1;" parent="WIyWlLk6GJQsqaUBKTNV-1" source="2-hhIEHxdiHJnQ0-l-Cq-25" target="2-hhIEHxdiHJnQ0-l-Cq-13" edge="1">
          <mxGeometry relative="1" as="geometry" />
        </mxCell>
        <mxCell id="2-hhIEHxdiHJnQ0-l-Cq-25" value="(re)generate greenery" style="rounded=1;whiteSpace=wrap;html=1;" parent="WIyWlLk6GJQsqaUBKTNV-1" vertex="1">
          <mxGeometry x="184.92000000000002" y="775" width="120" height="60" as="geometry" />
        </mxCell>
        <mxCell id="3XD62awOse0tcyEUN-YT-1" style="edgeStyle=orthogonalEdgeStyle;rounded=0;orthogonalLoop=1;jettySize=auto;html=1;entryX=0;entryY=0.5;entryDx=0;entryDy=0;" edge="1" parent="WIyWlLk6GJQsqaUBKTNV-1" source="2-hhIEHxdiHJnQ0-l-Cq-29" target="2-hhIEHxdiHJnQ0-l-Cq-21">
          <mxGeometry relative="1" as="geometry" />
        </mxCell>
        <mxCell id="2-hhIEHxdiHJnQ0-l-Cq-29" value="(re)generate rain harvesting system" style="rounded=1;whiteSpace=wrap;html=1;" parent="WIyWlLk6GJQsqaUBKTNV-1" vertex="1">
          <mxGeometry x="439.99999999999994" y="930" width="120" height="60" as="geometry" />
        </mxCell>
        <mxCell id="2-hhIEHxdiHJnQ0-l-Cq-36" style="edgeStyle=orthogonalEdgeStyle;rounded=0;orthogonalLoop=1;jettySize=auto;html=1;" parent="WIyWlLk6GJQsqaUBKTNV-1" source="2-hhIEHxdiHJnQ0-l-Cq-31" edge="1">
          <mxGeometry relative="1" as="geometry">
            <mxPoint x="580" y="250" as="targetPoint" />
          </mxGeometry>
        </mxCell>
        <mxCell id="2-hhIEHxdiHJnQ0-l-Cq-39" value="no" style="edgeLabel;html=1;align=center;verticalAlign=middle;resizable=0;points=[];" parent="2-hhIEHxdiHJnQ0-l-Cq-36" vertex="1" connectable="0">
          <mxGeometry x="-0.4708" relative="1" as="geometry">
            <mxPoint as="offset" />
          </mxGeometry>
        </mxCell>
        <mxCell id="2-hhIEHxdiHJnQ0-l-Cq-37" value="yes" style="edgeStyle=orthogonalEdgeStyle;rounded=0;orthogonalLoop=1;jettySize=auto;html=1;" parent="WIyWlLk6GJQsqaUBKTNV-1" source="2-hhIEHxdiHJnQ0-l-Cq-31" target="2-hhIEHxdiHJnQ0-l-Cq-19" edge="1">
          <mxGeometry relative="1" as="geometry" />
        </mxCell>
        <mxCell id="2-hhIEHxdiHJnQ0-l-Cq-31" value="Blind facades on ground floor?" style="rhombus;whiteSpace=wrap;html=1;" parent="WIyWlLk6GJQsqaUBKTNV-1" vertex="1">
          <mxGeometry x="111.25" y="280" width="267.5" height="160" as="geometry" />
        </mxCell>
        <mxCell id="2-hhIEHxdiHJnQ0-l-Cq-41" value="" style="shape=image;html=1;verticalAlign=top;verticalLabelPosition=bottom;labelBackgroundColor=#ffffff;imageAspect=0;aspect=fixed;image=https://cdn3.iconfinder.com/data/icons/essential-pack/32/34-Happy_and_Smile-128.png" parent="WIyWlLk6GJQsqaUBKTNV-1" vertex="1">
          <mxGeometry x="660" y="596" width="128" height="128" as="geometry" />
        </mxCell>
      </root>
    </mxGraphModel>
  </diagram>
</mxfile>
